<?xml version="1.0" encoding="UTF-8"?><svg id="Calque_2" xmlns="http://www.w3.org/2000/svg" viewBox="0 0 68.62 68.62"><defs><style>.cls-1{fill:#dfe2d7;}.cls-2{fill:#34363a;}</style></defs><g id="Calque_1-2"><g><circle class="cls-1" cx="34.31" cy="34.31" r="34.31"/><path class="cls-2" d="M25.04,26.6v-9.44c0-.47,.41-.87,.87-.87s.87,.41,.87,.87v9.44c0,.47-.41,.87-.87,.87-.47,0-.87-.41-.87-.87Zm4.66,.87c.47,0,.87-.41,.87-.87v-9.44c0-.47-.41-.87-.87-.87s-.87,.41-.87,.87v9.44c0,.47,.41,.87,.87,.87Zm3.85-11.19c-.47,0-.87,.41-.87,.87v9.44c0,2.04-1.28,3.9-3.26,4.6-.06,0-.06,.06-.12,.06h-.06c-.06,0-.06,.06-.12,.06h-.06c-.06,0-.06,.06-.06,.12l-.06,.06c0,.06-.06,.06-.06,.12v.06q0,.06-.06,.12v21.5c0,.06-.06,.12-.12,.12h-1.86c-.06,0-.12-.06-.12-.12V31.78c0-.12-.06-.23-.12-.29l-.12-.12-.12-.12c-.06,0-.06-.06-.12-.06-1.92-.7-3.26-2.51-3.26-4.6v-9.44c0-.47-.41-.87-.87-.87s-.87,.41-.87,.87v9.44c0,2.56,1.51,4.89,3.85,6v20.68c0,1.05,.82,1.86,1.86,1.86h1.86c1.05,0,1.86-.82,1.86-1.86v-20.68c2.33-1.05,3.85-3.38,3.85-6v-9.44c-.12-.47-.53-.87-.99-.87h0Zm13.81,6.76v10.31c0,1.05-.82,1.86-1.86,1.86h-1.4v18.06c0,1.05-.82,1.86-1.86,1.86h-1.86c-1.05,0-1.86-.82-1.86-1.86V15.47h.87c2.8-.06,7.98,1.57,7.98,7.57h0Zm-1.75,0c0-4.49-3.61-5.53-5.3-5.77V53.28c0,.06,.06,.12,.12,.12h1.86c.06,0,.12-.06,.12-.12v-19.81h3.15c.06,0,.12-.06,.12-.12v-10.31h-.06Z"/></g></g></svg>