<?xml version="1.0" encoding="UTF-8"?><svg id="Calque_2" xmlns="http://www.w3.org/2000/svg" viewBox="0 0 68.62 68.62"><defs><style>.cls-1{fill:#dfe2d7;}.cls-2{fill:#34363a;}</style></defs><g id="Calque_1-2"><g><circle class="cls-1" cx="34.31" cy="34.31" r="34.31"/><g><path class="cls-2" d="M48.33,31.44h-3.61v-5.52c1.62-.8,2.73-2.47,2.73-4.4,0-2.71-2.2-4.92-4.91-4.92-.88,0-1.75,.24-2.5,.69-1.21-1.4-2.97-2.21-4.85-2.21-1.28,0-2.52,.38-3.58,1.09-1.45-1.51-3.42-2.36-5.54-2.36-4.25,0-7.7,3.46-7.7,7.7,0,2.22,.95,4.22,2.46,5.63v20.23c0,4.1,3.33,7.43,7.43,7.43h9.03c4.1,0,7.43-3.33,7.43-7.43v-4.06h3.61c2.15,0,3.91-1.75,3.91-3.91v-4.06c0-2.15-1.75-3.91-3.91-3.91Zm-28.23-9.92c0-3.3,2.68-5.98,5.98-5.98,1.87,0,3.59,.85,4.74,2.34l.56,.73,.69-.61c.87-.77,1.98-1.2,3.13-1.2,1.6,0,3.07,.8,3.95,2.14l.54,.84,.75-.66c.59-.52,1.33-.8,2.11-.8,1.76,0,3.19,1.43,3.19,3.19s-1.43,3.19-3.19,3.19c-.77,0-1.52-.28-2.11-.8l-.75-.66-.54,.83c-.88,1.34-2.35,2.15-3.95,2.15-1.15,0-2.26-.42-3.13-1.2l-.69-.62-.56,.73c-1.14,1.49-2.87,2.34-4.74,2.34-3.3,0-5.98-2.68-5.98-5.98Zm22.9,25.85c0,3.15-2.56,5.7-5.71,5.7h-9.03c-3.15,0-5.7-2.56-5.7-5.7V28.36c1.05,.54,2.25,.86,3.52,.86,2.12,0,4.09-.85,5.54-2.36,1.06,.71,2.3,1.09,3.58,1.09,1.88,0,3.63-.81,4.85-2.21,.75,.45,1.62,.69,2.5,.69,.15,0,.31,0,.46-.02v20.96Zm5.33-5.79h-3.61v-8.42h3.61c1.2,0,2.18,.98,2.18,2.18v4.06c0,1.2-.98,2.18-2.18,2.18Z"/><rect class="cls-2" x="25.84" y="33.28" width="1.72" height="12.31"/><rect class="cls-2" x="32.12" y="33.28" width="1.72" height="12.31"/><rect class="cls-2" x="38.4" y="33.28" width="1.72" height="12.31"/><path class="cls-2" d="M28.55,19.07c0-.48-.39-.86-.86-.86-2.48,0-4.49,2.01-4.49,4.49,0,.48,.39,.86,.86,.86h0c.48,0,.86-.39,.86-.86,0-1.52,1.24-2.77,2.76-2.77,.48,0,.86-.39,.86-.86Z"/></g></g></g></svg>