<?xml version="1.0" encoding="UTF-8"?><svg id="Calque_2" xmlns="http://www.w3.org/2000/svg" viewBox="0 0 108.58 108.59"><defs><style>.cls-1{fill:none;stroke:#000;stroke-miterlimit:10;stroke-width:1.5px;}.cls-2{font-family:SpaceGrotesk-SemiBold, 'Space Grotesk';font-size:11.2px;}</style></defs><g id="Calque_1-2"><g><text class="cls-2" transform="translate(27.72 68.49) rotate(-113.95)"><tspan x="0" y="0">•</tspan></text><text class="cls-2" transform="translate(26.68 66.24) rotate(-110.68)"><tspan x="0" y="0"> </tspan></text><text class="cls-2" transform="translate(25.3 62.33) rotate(-102.82)"><tspan x="0" y="0"> </tspan></text><text class="cls-2" transform="translate(24.68 61.41) rotate(-94.31)"><tspan x="0" y="0">M</tspan></text><text class="cls-2" transform="translate(24.13 52.08) rotate(-79.71)"><tspan x="0" y="0">a</tspan></text><text class="cls-2" transform="translate(25.15 46.43) rotate(-70.01)"><tspan x="0" y="0">t</tspan></text><text class="cls-2" transform="translate(26.62 42.09) rotate(-59.94)"><tspan x="0" y="0">c</tspan></text><text class="cls-2" transform="translate(29.68 36.68) rotate(-47.96)"><tspan x="0" y="0">h</tspan></text><text class="cls-2" transform="translate(34.19 31.88) rotate(-39.18)"><tspan x="0" y="0"> </tspan></text><text class="cls-2" transform="translate(36.07 30.11) rotate(-30.42)"><tspan x="0" y="0">y</tspan></text><text class="cls-2" transform="translate(41.64 26.79) rotate(-18.16)"><tspan x="0" y="0">o</tspan></text><text class="cls-2" transform="translate(47.77 24.74) rotate(-5.94)"><tspan x="0" y="0">u</tspan></text><text class="cls-2" transform="translate(54.28 24.14) rotate(4.12)"><tspan x="0" y="0">r</tspan></text><text class="cls-2" transform="translate(58.43 24.47) rotate(10.64)"><tspan x="0" y="0"> </tspan></text><text class="cls-2" transform="translate(61 24.76) rotate(19.67)"><tspan x="0" y="0">b</tspan></text><text class="cls-2" transform="translate(67.36 27) rotate(32.17)"><tspan x="0" y="0">e</tspan></text><text class="cls-2" transform="translate(72.58 30.22) rotate(43.39)"><tspan x="0" y="0">e</tspan></text><text class="cls-2" transform="translate(77.03 34.51) rotate(53.2)"><tspan x="0" y="0">r</tspan></text><text class="cls-2" transform="translate(79.61 38.03) rotate(60.1)"><tspan x="0" y="0"> </tspan></text><text class="cls-2" transform="translate(80.87 40.1) rotate(66.14)"><tspan x="0" y="0">•</tspan></text><text class="cls-2" transform="translate(83.05 45.5) rotate(75.77)"><tspan x="0" y="0"> </tspan></text><text class="cls-2" transform="translate(83.69 46.41) rotate(84.28)"><tspan x="0" y="0">M</tspan></text><text class="cls-2" transform="translate(84.47 55.71) rotate(98.84)"><tspan x="0" y="0">a</tspan></text><text class="cls-2" transform="translate(83.6 61.38) rotate(108.56)"><tspan x="0" y="0">t</tspan></text><text class="cls-2" transform="translate(82.24 65.77) rotate(118.65)"><tspan x="0" y="0">c</tspan></text><text class="cls-2" transform="translate(79.32 71.24) rotate(130.6)"><tspan x="0" y="0">h</tspan></text><text class="cls-2" transform="translate(74.92 76.17) rotate(139.41)"><tspan x="0" y="0"> </tspan></text><text class="cls-2" transform="translate(73.09 77.97) rotate(148.14)"><tspan x="0" y="0">y</tspan></text><text class="cls-2" transform="translate(67.6 81.43) rotate(160.43)"><tspan x="0" y="0">o</tspan></text><text class="cls-2" transform="translate(61.52 83.63) rotate(172.65)"><tspan x="0" y="0">u</tspan></text><text class="cls-2" transform="translate(55.01 84.39) rotate(-177.27)"><tspan x="0" y="0">r</tspan></text><text class="cls-2" transform="translate(50.88 84.17) rotate(-170.81)"><tspan x="0" y="0"> </tspan></text><text class="cls-2" transform="translate(48.3 83.94) rotate(-161.76)"><tspan x="0" y="0">b</tspan></text><text class="cls-2" transform="translate(41.9 81.84) rotate(-149.69)"><tspan x="0" y="0">e</tspan></text><text class="cls-2" transform="translate(36.59 78.77) rotate(-138.05)"><tspan x="0" y="0">e</tspan></text><text class="cls-2" transform="translate(32.04 74.6) rotate(-128.25)"><tspan x="0" y="0">r</tspan></text><text class="cls-2" transform="translate(29.73 71.67) rotate(-122.55)"><tspan x="0" y="0"> </tspan></text><circle class="cls-1" cx="54.28" cy="54.29" r="43.62"/><g><path d="M59.89,52.16h-2.68v-4.1c1.2-.6,2.03-1.84,2.03-3.27,0-2.01-1.64-3.65-3.65-3.65-.66,0-1.3,.18-1.86,.51-.9-1.04-2.21-1.64-3.6-1.64-.95,0-1.87,.29-2.66,.81-1.08-1.12-2.54-1.75-4.12-1.75-3.16,0-5.72,2.57-5.72,5.72,0,1.65,.71,3.14,1.83,4.18v15.03c0,3.04,2.48,5.52,5.52,5.52h6.71c3.04,0,5.52-2.48,5.52-5.52v-3.02h2.68c1.6,0,2.9-1.3,2.9-2.9v-3.02c0-1.6-1.3-2.9-2.9-2.9h0Zm-20.98-7.37c0-2.45,1.99-4.44,4.44-4.44,1.39,0,2.67,.63,3.52,1.74l.42,.55,.51-.46c.64-.57,1.47-.89,2.32-.89,1.19,0,2.28,.6,2.93,1.59l.4,.62,.56-.49c.44-.38,.99-.6,1.57-.6,1.31,0,2.37,1.06,2.37,2.37s-1.06,2.37-2.37,2.37c-.58,0-1.13-.21-1.57-.6l-.56-.49-.4,.62c-.65,1-1.75,1.59-2.93,1.59-.85,0-1.68-.32-2.32-.89l-.51-.46-.42,.55c-.85,1.11-2.13,1.74-3.52,1.74-2.45,0-4.44-1.99-4.44-4.44h0Zm12.78,23.45h-6.71c-2.34,0-4.24-1.9-4.24-4.24v-14.13c.78,.4,1.67,.64,2.61,.64,1.57,0,3.04-.63,4.12-1.75,.78,.53,1.71,.81,2.66,.81,1.4,0,2.7-.6,3.6-1.64,.56,.33,1.2,.51,1.86,.51,.11,0,.23,0,.34-.02v15.58c0,2.34-1.9,4.24-4.24,4.24h0Zm9.82-10.16c0,.89-.73,1.62-1.62,1.62h-2.68v-6.26h2.68c.89,0,1.62,.73,1.62,1.62v3.02Z"/><path d="M43.18,53.53h1.28v9.15h-1.28v-9.15Z"/><path d="M47.85,53.53h1.28v9.15h-1.28v-9.15Z"/><path d="M52.51,53.53h1.28v9.15h-1.28v-9.15Z"/><path d="M41.86,46.3c.35,0,.64-.29,.64-.64,0-1.13,.92-2.06,2.05-2.06,.35,0,.64-.29,.64-.64s-.29-.64-.64-.64c-1.84,0-3.34,1.5-3.34,3.34,0,.35,.29,.64,.64,.64h0Z"/></g><g><path d="M67.62,69.47c-.87,0-1.53-.61-1.53-1.42v-17.93s-.05,0-.08,0c-1.04,0-1.9-.83-1.9-1.84v-7.81c0-.3,.22-.5,.54-.5s.54,.2,.54,.5v4.6c0,.25,.18,.42,.45,.42s.45-.16,.45-.42v-4.6c0-.3,.22-.5,.54-.5s.54,.2,.54,.5v4.6c0,.26,.23,.42,.45,.42,.27,0,.45-.16,.45-.42v-4.6c0-.3,.22-.5,.54-.5s.54,.2,.54,.5v4.6c0,.26,.23,.42,.45,.42s.45-.16,.45-.42v-4.6c0-.3,.22-.5,.54-.5s.54,.2,.54,.5v7.81c0,1.04-.91,1.88-2.02,1.88l.04,17.88c0,.81-.66,1.42-1.53,1.42Zm-2.43-21.19c0,.48,.42,.88,.94,.88,.62,0,1.03,.39,1.03,.96v17.93c0,.25,.18,.42,.45,.42s.45-.16,.45-.42v-17.93c0-.58,.42-.96,1.03-.96,.52,0,.95-.39,.95-.88v-1.88c-.1,.09-.3,.09-.45,.09-.44,0-.78-.11-1.02-.33-.16,.21-.54,.33-.96,.33-.44,0-.78-.11-1.02-.33-.26,.3-.76,.33-.96,.33-.17,0-.31,0-.45-.03v1.83Z"/><path d="M70.59,40.01c.3,0,.49,.18,.49,.46v7.82c0,1.01-.89,1.84-1.98,1.84v17.93c0,.78-.64,1.38-1.48,1.38s-1.48-.6-1.48-1.38v-17.93c-1.09,0-1.98-.83-1.98-1.84v-7.82c0-.28,.2-.46,.49-.46s.49,.18,.49,.46v4.6c0,.28,.2,.46,.49,.46s.49-.18,.49-.46v-4.6c0-.28,.2-.46,.49-.46s.49,.18,.49,.46v4.6c0,.28,.25,.46,.49,.46,.3,0,.49-.18,.49-.46v-4.6c0-.28,.2-.46,.49-.46s.49,.18,.49,.46v4.6c0,.28,.25,.46,.49,.46s.49-.18,.49-.46v-4.6c0-.28,.2-.46,.49-.46m-2.97,6.44c-.4,0-.74-.09-.99-.32-.25,.23-.64,.32-.99,.32-.2,0-.35,0-.49-.05v1.88c0,.51,.45,.92,.99,.92,.59,0,.99,.37,.99,.92v17.93c0,.28,.2,.46,.49,.46s.49-.18,.49-.46v-17.93c0-.55,.4-.92,.99-.92,.54,0,.99-.41,.99-.92v-1.88c-.15,.05-.35,.05-.49,.05-.4,0-.74-.09-.99-.32-.25,.23-.64,.32-.99,.32m2.97-6.53c-.34,0-.58,.23-.58,.55v4.6c0,.23-.21,.37-.41,.37s-.41-.14-.41-.37v-4.6c0-.32-.24-.55-.58-.55s-.58,.23-.58,.55v4.6c0,.23-.16,.37-.41,.37-.2,0-.41-.14-.41-.37v-4.6c0-.32-.24-.55-.58-.55s-.58,.23-.58,.55v4.6c0,.23-.16,.37-.41,.37s-.41-.15-.41-.37v-4.6c0-.32-.24-.55-.58-.55s-.58,.23-.58,.55v7.82c0,1.04,.88,1.88,1.98,1.93v17.84c0,.84,.68,1.47,1.57,1.47s1.57-.63,1.57-1.47v-17.84c1.1-.04,1.98-.89,1.98-1.93v-7.82c0-.32-.24-.55-.58-.55h0Zm-4.95,6.61c.19,0,.66-.03,.99-.29,.24,.19,.58,.29,.99,.29,.19,0,.66-.03,.99-.29,.24,.19,.58,.29,.99,.29,.12,0,.27,0,.41-.02v1.77c0,.46-.4,.83-.9,.83-.65,0-1.08,.41-1.08,1.01v17.93c0,.23-.16,.37-.41,.37s-.41-.15-.41-.37v-17.93c0-.6-.43-1.01-1.08-1.01-.5,0-.9-.37-.9-.83v-1.77c.12,.02,.25,.02,.41,.02h0Z"/></g></g></g></svg>