<?xml version="1.0" encoding="UTF-8"?><svg id="Calque_2" xmlns="http://www.w3.org/2000/svg" viewBox="0 0 76.22 74.09"><defs><style>.cls-1{fill:#34363a;}</style></defs><g id="Calque_1-2"><g><g><path class="cls-1" d="M9.9,50.65c.12,.26,.18,.52,.16,.79s-.1,.52-.25,.75c-.15,.23-.36,.4-.62,.53-.26,.13-.53,.18-.79,.16-.27-.02-.51-.11-.74-.26s-.4-.36-.53-.62c-.13-.27-.19-.54-.17-.8,.02-.26,.1-.51,.25-.73,.15-.22,.36-.4,.63-.53,.28-.13,.55-.19,.82-.17s.51,.11,.73,.27c.22,.15,.39,.36,.52,.61Z"/><path class="cls-1" d="M8.69,44.3l-7.79,.85-.27-2.5,6.73-2.27-.02-.19-7.06-.77-.27-2.5,7.79-.85,.14,1.29-6.83,.75,.02,.19,6.99,.77,.24,2.23-6.66,2.26,.02,.19,6.83-.75,.14,1.3Z"/><path class="cls-1" d="M8.43,33.28c-.06,.38-.18,.72-.36,1.01-.18,.29-.42,.51-.7,.65-.28,.14-.62,.19-.99,.13-.37-.05-.67-.19-.89-.41-.22-.22-.38-.5-.46-.83-.08-.34-.09-.71-.03-1.11l.23-1.58-.33-.05c-.29-.04-.54,.01-.74,.16-.21,.15-.34,.42-.39,.79-.05,.37,0,.66,.14,.87,.15,.21,.35,.37,.62,.47l-.56,1.12c-.28-.13-.52-.31-.72-.54-.21-.23-.36-.52-.46-.87-.1-.35-.11-.76-.04-1.23,.1-.72,.37-1.25,.79-1.61,.42-.36,.97-.49,1.65-.39l2.15,.32c.22,.03,.35-.05,.38-.26l.07-.46,1.05,.15-.13,.9c-.04,.27-.14,.47-.3,.62-.16,.15-.35,.21-.58,.18h-.02l-.03,.18c.1,.06,.21,.16,.34,.29,.13,.13,.23,.32,.31,.56,.07,.24,.08,.55,.03,.94Zm-1.01-.36c.06-.42,0-.78-.21-1.08-.2-.3-.5-.48-.91-.54l-.11-.02-.22,1.51c-.04,.27-.01,.5,.08,.69s.25,.3,.48,.33c.22,.03,.41-.03,.58-.19,.16-.16,.27-.39,.31-.7Z"/><path class="cls-1" d="M9.65,27.31c-.11,.34-.3,.58-.57,.72-.27,.14-.58,.15-.92,.04l-3.12-1.02-.45,1.37-1.01-.33,.45-1.37-1.69-.55,.4-1.22,1.69,.55,.49-1.51,1.01,.33-.49,1.51,2.92,.95c.21,.07,.35,0,.42-.19l.34-1.05,1.01,.33-.47,1.46Z"/><path class="cls-1" d="M11.8,22.76c-.25,.47-.58,.85-.98,1.13-.4,.28-.85,.42-1.34,.44-.49,.02-1-.11-1.53-.39l-.14-.07c-.53-.28-.92-.63-1.18-1.05s-.38-.88-.38-1.36c0-.49,.14-.97,.39-1.44,.25-.47,.55-.82,.89-1.07,.34-.24,.71-.39,1.11-.44,.4-.05,.79-.01,1.17,.12l-.36,1.22c-.22-.08-.44-.12-.66-.11-.22,0-.43,.08-.62,.21-.2,.13-.36,.32-.5,.59-.14,.27-.22,.54-.22,.82,0,.28,.08,.54,.25,.78,.16,.25,.41,.45,.73,.63l.1,.05c.32,.17,.63,.26,.92,.26,.29,0,.55-.08,.79-.23,.23-.15,.42-.36,.57-.63,.21-.4,.27-.76,.18-1.08-.1-.32-.29-.59-.6-.82l.84-.96c.3,.26,.54,.57,.71,.93,.17,.36,.26,.74,.25,1.17-.01,.42-.14,.87-.39,1.33Z"/><path class="cls-1" d="M13.46,19.56l-6-5.05,.83-.99,2.32,1.96,.12-.14c-.06-.13-.09-.28-.1-.47,0-.18,.02-.39,.1-.61,.08-.22,.23-.46,.44-.72,.27-.33,.59-.55,.95-.68,.36-.13,.73-.15,1.11-.07,.38,.08,.75,.27,1.11,.58l2.54,2.14-.83,.99-2.46-2.07c-.34-.29-.67-.42-.98-.39-.31,.03-.6,.19-.86,.5-.29,.35-.41,.72-.35,1.11,.06,.4,.31,.77,.74,1.13l2.14,1.8-.83,.99Z"/><path class="cls-1" d="M21.51,14.53l-.6-.95,2.58-1.64c.18-.11,.21-.26,.08-.45l-.83-1.31-.16,.1c.02,.15,.01,.31-.03,.49-.04,.18-.14,.37-.28,.56s-.36,.38-.65,.56c-.36,.23-.73,.35-1.11,.36-.38,.01-.74-.08-1.07-.27-.34-.2-.63-.49-.88-.88l-1.77-2.8,1.08-.68,1.72,2.72c.24,.38,.51,.6,.81,.67s.62-.01,.96-.23c.38-.24,.61-.56,.67-.96,.06-.39-.05-.83-.35-1.3l-1.5-2.37,1.08-.68,3.52,5.56c.2,.31,.26,.61,.2,.9-.06,.29-.25,.53-.55,.72l-2.93,1.86Z"/><path class="cls-1" d="M27.84,8.87c-.52,.19-1.02,.25-1.51,.19-.49-.06-.92-.25-1.3-.56s-.67-.74-.87-1.3l-.06-.17c-.2-.55-.26-1.07-.17-1.56,.09-.48,.3-.91,.63-1.27,.33-.36,.76-.64,1.28-.83,.52-.19,1.02-.25,1.5-.19,.48,.06,.92,.25,1.3,.56,.38,.31,.67,.75,.88,1.3l.06,.17c.2,.55,.26,1.07,.17,1.55-.09,.48-.3,.9-.63,1.27-.33,.36-.75,.64-1.27,.83Zm-.39-1.07c.44-.16,.75-.44,.93-.82s.17-.84-.02-1.35l-.04-.11c-.19-.51-.47-.86-.86-1.04-.38-.18-.8-.19-1.24-.03-.44,.16-.75,.44-.93,.82s-.17,.84,.02,1.35l.04,.1c.19,.51,.47,.86,.86,1.04,.38,.18,.8,.19,1.24,.03Z"/><path class="cls-1" d="M33.54,7.33c-.42,.06-.81,.02-1.16-.13s-.64-.38-.86-.69c-.22-.32-.37-.71-.43-1.17l-.45-3.28,1.26-.18,.44,3.18c.06,.44,.22,.76,.46,.94,.25,.18,.57,.25,.97,.19,.45-.06,.79-.26,1.01-.59,.22-.33,.29-.78,.22-1.33l-.38-2.77,1.26-.17,.76,5.48-1.24,.17-.11-.76-.19,.03c-.07,.21-.22,.43-.45,.65-.23,.22-.6,.37-1.11,.44Z"/><path class="cls-1" d="M37.92,6.86l.21-5.53,1.26,.05-.02,.64h.19c.09-.22,.24-.38,.43-.48,.2-.1,.43-.14,.7-.13l.67,.03-.04,1.14-.69-.03c-.37-.01-.68,.07-.92,.26-.24,.19-.37,.49-.38,.9l-.12,3.2-1.29-.05Z"/><path class="cls-1" d="M47.69,8.61c-.5-.16-.85-.37-1.06-.63-.21-.26-.34-.52-.4-.77l-.18-.06-.22,.69-1.21-.39,2.39-7.47,1.23,.39-.92,2.86,.18,.06c.12-.12,.27-.21,.45-.29,.18-.08,.39-.12,.64-.12,.25,0,.54,.04,.88,.15,.43,.14,.8,.37,1.09,.7,.29,.33,.49,.73,.58,1.2,.09,.48,.04,1-.14,1.57l-.05,.17c-.18,.57-.45,1.02-.8,1.36-.35,.33-.74,.55-1.18,.64-.43,.09-.86,.07-1.29-.07Zm-.02-1.18c.44,.14,.85,.11,1.24-.08,.38-.2,.66-.56,.83-1.09l.03-.11c.17-.54,.16-1-.04-1.38-.2-.38-.52-.64-.97-.78-.44-.14-.85-.12-1.24,.07-.39,.19-.67,.55-.84,1.1l-.03,.11c-.17,.53-.15,.99,.05,1.37,.2,.38,.52,.64,.97,.79Z"/><path class="cls-1" d="M53.08,11.07c-.48-.28-.84-.62-1.09-1.04-.25-.42-.36-.87-.35-1.36,.01-.49,.16-.98,.45-1.48l.07-.12c.29-.5,.65-.88,1.06-1.13,.41-.25,.86-.37,1.34-.37,.48,0,.95,.15,1.43,.42,.46,.27,.81,.61,1.04,1.02,.23,.41,.33,.85,.31,1.33-.02,.48-.17,.97-.46,1.46l-.23,.4-3.59-2.09c-.21,.38-.25,.76-.13,1.13,.12,.37,.36,.67,.73,.88,.36,.21,.67,.29,.94,.23,.27-.06,.5-.16,.71-.31l.64,1.01c-.19,.12-.43,.23-.72,.33-.29,.1-.61,.13-.97,.11-.37-.03-.76-.17-1.2-.42Zm.49-3.8l2.45,1.43c.16-.33,.18-.65,.08-.97-.11-.31-.33-.57-.67-.77-.35-.21-.69-.28-1.01-.22-.32,.06-.6,.24-.84,.52Z"/><path class="cls-1" d="M58,14.62c-.41-.37-.7-.78-.86-1.23-.16-.46-.19-.92-.08-1.4,.11-.48,.35-.93,.73-1.36l.09-.1c.39-.44,.81-.74,1.26-.9,.46-.17,.92-.2,1.39-.1,.47,.1,.91,.33,1.32,.69,.4,.36,.68,.75,.82,1.2,.15,.44,.16,.9,.05,1.37-.11,.47-.36,.91-.73,1.34l-.3,.34-3.11-2.75c-.27,.33-.39,.7-.35,1.08s.23,.72,.55,1.01c.31,.28,.61,.41,.88,.41,.27,0,.52-.06,.76-.16l.43,1.12c-.21,.08-.47,.14-.77,.18s-.62,.01-.98-.09c-.35-.1-.72-.31-1.09-.64Zm1.22-3.63l2.12,1.88c.22-.29,.31-.6,.26-.93-.04-.33-.21-.62-.51-.88-.31-.27-.62-.41-.95-.41-.33,0-.63,.12-.92,.35Z"/><path class="cls-1" d="M60.7,17.06l4.32-3.46,.79,.99-.5,.4,.12,.15c.23-.08,.45-.08,.65,0,.2,.09,.39,.23,.56,.44l.42,.53-.89,.71-.43-.54c-.23-.29-.5-.47-.8-.52-.3-.06-.61,.04-.93,.3l-2.5,2-.81-1Z"/><path class="cls-1" d="M66.35,23.27c-.12-.26-.18-.52-.16-.79,.02-.27,.1-.52,.26-.75,.15-.23,.36-.4,.62-.53,.26-.13,.53-.18,.79-.16,.27,.02,.51,.11,.74,.26,.22,.15,.4,.36,.52,.62,.13,.27,.19,.54,.17,.8-.02,.27-.1,.51-.25,.73-.15,.22-.36,.4-.63,.53-.28,.13-.55,.19-.82,.16-.27-.02-.51-.11-.73-.27-.22-.15-.39-.36-.52-.62Z"/><path class="cls-1" d="M67.35,28.86l7.77-1.04,.33,2.5-6.67,2.43,.03,.19,7.08,.6,.33,2.49-7.77,1.04-.17-1.29,6.8-.92-.03-.19-7.01-.6-.3-2.22,6.6-2.42-.02-.19-6.8,.91-.17-1.3Z"/><path class="cls-1" d="M67.88,39.85c.05-.39,.16-.73,.33-1.02,.18-.29,.4-.52,.68-.67,.28-.15,.61-.2,.99-.16,.37,.04,.67,.17,.9,.39,.23,.21,.39,.49,.48,.82s.11,.71,.06,1.11l-.19,1.59,.33,.04c.29,.04,.54-.03,.74-.18,.2-.16,.33-.42,.37-.8,.04-.37,0-.66-.16-.87-.15-.21-.36-.36-.63-.45l.53-1.13c.28,.12,.52,.3,.74,.52,.21,.23,.37,.51,.48,.85,.11,.34,.13,.75,.07,1.23-.09,.72-.33,1.26-.75,1.63-.41,.37-.96,.51-1.64,.43l-2.16-.26c-.22-.03-.35,.06-.37,.27l-.06,.47-1.06-.13,.11-.9c.03-.27,.12-.48,.28-.63,.15-.16,.35-.22,.58-.19h.02l.02-.19c-.1-.06-.21-.15-.35-.28-.13-.13-.24-.31-.32-.55-.08-.24-.1-.55-.05-.94Zm1.02,.34c-.05,.42,.03,.78,.24,1.08,.21,.3,.52,.47,.92,.52h.11l.18-1.5c.03-.27,0-.5-.1-.69-.1-.19-.26-.29-.49-.32-.22-.03-.41,.04-.57,.2-.16,.16-.26,.4-.29,.71Z"/><path class="cls-1" d="M66.82,45.86c.1-.34,.29-.59,.55-.73,.26-.14,.57-.16,.92-.06l3.14,.94,.41-1.38,1.02,.3-.41,1.38,1.71,.51-.37,1.23-1.71-.51-.45,1.52-1.02-.3,.46-1.52-2.94-.88c-.22-.06-.35,0-.41,.21l-.32,1.06-1.02-.3,.44-1.47Z"/><path class="cls-1" d="M64.77,50.46c.24-.48,.56-.86,.96-1.15,.4-.29,.84-.45,1.33-.48,.49-.03,1.01,.09,1.54,.36l.14,.07c.53,.27,.93,.61,1.2,1.03,.27,.42,.4,.87,.41,1.35,0,.49-.11,.97-.35,1.45-.24,.47-.53,.84-.86,1.09-.34,.25-.7,.41-1.1,.47-.39,.06-.79,.03-1.18-.09l.33-1.23c.22,.08,.44,.11,.66,.09,.22-.01,.43-.09,.62-.22,.19-.13,.36-.33,.49-.6,.14-.27,.2-.55,.2-.82,0-.28-.1-.53-.27-.77-.17-.24-.42-.44-.75-.61l-.1-.05c-.33-.17-.64-.24-.93-.24-.29,0-.55,.09-.78,.25-.23,.16-.41,.37-.55,.64-.2,.41-.26,.77-.15,1.08,.1,.32,.31,.58,.62,.81l-.82,.98c-.31-.25-.55-.56-.73-.91s-.27-.74-.27-1.16c0-.42,.12-.87,.36-1.34Z"/><path class="cls-1" d="M63.2,53.7l6.12,4.9-.8,1.01-2.37-1.9-.12,.15c.06,.13,.1,.28,.12,.47,.02,.18-.01,.39-.09,.61-.07,.22-.22,.47-.43,.73-.27,.33-.58,.57-.93,.7-.35,.14-.72,.17-1.1,.1-.38-.07-.76-.25-1.12-.55l-2.59-2.07,.8-1.01,2.51,2.01c.35,.28,.68,.4,.99,.37,.31-.03,.59-.21,.84-.52,.28-.36,.39-.73,.32-1.12-.07-.39-.33-.76-.77-1.11l-2.19-1.75,.8-1.01Z"/><path class="cls-1" d="M55.27,58.93l.62,.93-2.54,1.7c-.17,.12-.2,.27-.07,.45l.86,1.28,.16-.11c-.02-.15-.02-.31,.02-.49,.04-.18,.13-.37,.27-.57,.14-.2,.35-.39,.64-.58,.35-.24,.72-.37,1.1-.39,.38-.03,.74,.06,1.08,.25,.34,.19,.64,.48,.9,.86l1.84,2.76-1.06,.71-1.79-2.67c-.25-.37-.53-.59-.83-.64s-.62,.03-.96,.25c-.38,.25-.59,.58-.65,.97-.05,.4,.07,.83,.39,1.29l1.56,2.33-1.06,.71-3.66-5.47c-.2-.3-.28-.6-.22-.89,.06-.29,.23-.54,.53-.74l2.89-1.93Z"/><path class="cls-1" d="M49.08,64.75c.51-.2,1.02-.28,1.51-.23,.49,.05,.93,.23,1.32,.53,.39,.3,.69,.72,.91,1.27l.07,.17c.22,.55,.29,1.07,.21,1.55-.08,.49-.28,.92-.6,1.28-.32,.37-.74,.65-1.26,.86-.51,.2-1.01,.28-1.5,.23-.48-.05-.92-.23-1.31-.53-.39-.3-.69-.73-.91-1.28l-.07-.17c-.22-.55-.28-1.07-.21-1.55,.08-.48,.28-.91,.6-1.28,.32-.37,.74-.66,1.25-.86Zm.42,1.06c-.44,.17-.74,.46-.91,.84-.17,.39-.15,.84,.05,1.35l.04,.1c.2,.51,.49,.85,.88,1.02,.39,.17,.8,.17,1.24,0,.44-.17,.74-.45,.91-.84,.17-.39,.15-.84-.05-1.35l-.04-.1c-.2-.51-.49-.85-.88-1.02-.39-.17-.8-.17-1.24,0Z"/><path class="cls-1" d="M43.43,66.43c.42-.07,.81-.04,1.16,.1,.35,.13,.65,.36,.88,.67,.23,.31,.39,.7,.46,1.16l.53,3.27-1.26,.21-.52-3.17c-.07-.44-.23-.75-.49-.93-.25-.18-.58-.23-.98-.17-.45,.07-.78,.28-.99,.62-.21,.34-.28,.78-.19,1.33l.45,2.76-1.26,.21-.89-5.46,1.24-.2,.12,.76,.19-.03c.06-.21,.21-.43,.43-.66,.22-.23,.59-.38,1.1-.46Z"/><path class="cls-1" d="M39.04,67.01l-.08,5.53-1.26-.02v-.64h-.18c-.09,.23-.23,.39-.42,.5-.2,.1-.43,.15-.7,.15h-.67l.02-1.15h.69c.37,.02,.68-.08,.91-.27,.23-.2,.35-.5,.36-.91l.04-3.2,1.29,.02Z"/><path class="cls-1" d="M29.25,65.5c.5,.15,.86,.35,1.08,.6,.22,.25,.35,.51,.41,.76l.18,.05,.2-.7,1.21,.36-2.2,7.52-1.24-.36,.84-2.88-.18-.05c-.12,.12-.27,.22-.44,.3-.18,.08-.39,.13-.64,.14-.25,.01-.54-.03-.88-.13-.44-.13-.81-.35-1.11-.67-.3-.32-.51-.71-.61-1.19-.1-.47-.07-1,.1-1.57l.05-.17c.17-.57,.42-1.03,.76-1.38,.34-.34,.73-.57,1.16-.67,.43-.1,.86-.09,1.29,.03Zm.05,1.18c-.44-.13-.86-.09-1.23,.11s-.65,.58-.8,1.11l-.03,.11c-.16,.54-.14,1,.07,1.37,.21,.37,.54,.62,.99,.76,.44,.13,.86,.1,1.24-.1,.38-.2,.65-.57,.81-1.12l.03-.11c.16-.54,.13-1-.08-1.37s-.54-.63-.98-.76Z"/><path class="cls-1" d="M23.8,63.18c.49,.26,.86,.6,1.12,1,.26,.41,.39,.86,.39,1.35,0,.49-.13,.99-.41,1.49l-.06,.12c-.28,.51-.62,.9-1.02,1.17-.41,.26-.85,.4-1.33,.41-.48,0-.96-.12-1.44-.38-.47-.25-.83-.58-1.07-.98-.24-.4-.36-.84-.36-1.32,0-.48,.14-.97,.41-1.47l.22-.4,3.66,1.98c.19-.39,.22-.77,.09-1.14-.13-.37-.39-.65-.76-.86-.37-.2-.68-.27-.95-.2-.26,.07-.5,.17-.7,.33l-.67-.99c.19-.13,.42-.25,.71-.35,.28-.11,.61-.15,.97-.14,.37,.01,.77,.14,1.21,.38Zm-.37,3.81l-2.49-1.35c-.15,.34-.16,.66-.05,.97s.35,.56,.7,.75c.36,.2,.7,.26,1.02,.18,.32-.07,.59-.26,.82-.55Z"/><path class="cls-1" d="M18.79,59.75c.42,.36,.72,.76,.89,1.21,.17,.45,.21,.92,.11,1.4-.1,.48-.33,.94-.7,1.38l-.09,.1c-.37,.45-.79,.76-1.24,.93-.45,.18-.91,.22-1.38,.13-.47-.09-.92-.31-1.33-.66-.41-.35-.7-.74-.85-1.18s-.19-.89-.08-1.36c.1-.47,.34-.92,.7-1.36l.29-.35,3.18,2.67c.27-.34,.37-.71,.32-1.09-.06-.39-.25-.72-.57-.99-.32-.27-.62-.4-.89-.39-.27,.01-.52,.07-.75,.18l-.46-1.1c.21-.09,.46-.15,.76-.2,.3-.05,.62-.03,.98,.06,.35,.09,.72,.29,1.11,.62Zm-1.13,3.66l-2.17-1.82c-.21,.3-.29,.61-.24,.94,.05,.33,.23,.62,.53,.87,.31,.26,.64,.39,.96,.38,.33,0,.63-.13,.91-.37Z"/><path class="cls-1" d="M16.04,57.38l-4.23,3.57-.82-.97,.49-.41-.12-.15c-.23,.09-.45,.09-.65,0-.21-.08-.39-.22-.57-.43l-.43-.51,.87-.74,.45,.53c.24,.29,.51,.45,.81,.5,.3,.05,.61-.06,.92-.32l2.45-2.07,.83,.98Z"/></g><g><path class="cls-1" d="M41.52,35.13h-2.36v-3.62c1.06-.53,1.79-1.62,1.79-2.88,0-1.78-1.44-3.22-3.22-3.22-.58,0-1.14,.16-1.64,.45-.8-.91-1.95-1.45-3.18-1.45-.84,0-1.65,.25-2.34,.72-.95-.99-2.24-1.55-3.63-1.55-2.78,0-5.05,2.26-5.05,5.05,0,1.46,.62,2.77,1.61,3.69v13.25c0,2.68,2.18,4.87,4.87,4.87h5.92c2.68,0,4.87-2.18,4.87-4.87v-2.66h2.36c1.41,0,2.56-1.15,2.56-2.56v-2.66c0-1.41-1.15-2.56-2.56-2.56Zm-18.5-6.5c0-2.16,1.76-3.92,3.92-3.92,1.22,0,2.35,.56,3.1,1.53l.37,.48,.45-.4c.57-.51,1.3-.78,2.05-.78,1.05,0,2.01,.53,2.59,1.4l.36,.55,.49-.43c.38-.34,.87-.52,1.38-.52,1.15,0,2.09,.94,2.09,2.09s-.94,2.09-2.09,2.09c-.51,0-1-.19-1.38-.52l-.49-.43-.36,.55c-.57,.88-1.54,1.41-2.59,1.41-.75,0-1.48-.28-2.05-.78l-.45-.4-.37,.48c-.75,.98-1.88,1.54-3.1,1.54-2.16,0-3.92-1.76-3.92-3.92Zm15,16.94c0,2.06-1.68,3.74-3.74,3.74h-5.91c-2.06,0-3.74-1.68-3.74-3.74v-12.45c.69,.36,1.47,.56,2.3,.56,1.39,0,2.68-.56,3.63-1.55,.69,.47,1.51,.72,2.35,.72,1.23,0,2.38-.53,3.18-1.45,.49,.29,1.06,.45,1.64,.45,.1,0,.2,0,.3-.01v13.73Zm3.49-3.79h-2.36v-5.52h2.36c.79,0,1.43,.64,1.43,1.43v2.66c0,.79-.64,1.43-1.43,1.43Z"/><rect class="cls-1" x="26.78" y="36.33" width="1.13" height="8.07"/><rect class="cls-1" x="30.9" y="36.33" width="1.13" height="8.07"/><rect class="cls-1" x="35.01" y="36.33" width="1.13" height="8.07"/><path class="cls-1" d="M28.56,27.02c0-.31-.25-.56-.56-.56-1.62,0-2.94,1.32-2.94,2.94,0,.31,.25,.56,.56,.56h0c.31,0,.56-.25,.56-.56,0-1,.81-1.81,1.81-1.81,.31,0,.56-.25,.56-.56Z"/></g><g><path class="cls-1" d="M47.97,31.56v-6.2c0-.31,.26-.57,.55-.57s.55,.27,.55,.57v6.2c0,.31-.26,.57-.55,.57-.29,0-.55-.27-.55-.57Z"/><path class="cls-1" d="M50.9,32.13c.29,0,.55-.27,.55-.57v-6.2c0-.31-.26-.57-.55-.57s-.55,.27-.55,.57v6.2c0,.31,.26,.57,.55,.57Z"/><path class="cls-1" d="M53.32,24.79c-.29,0-.55,.27-.55,.57v6.2c0,1.34-.81,2.56-2.05,3.02-.04,0-.04,.04-.07,.04h-.04s-.04,.04-.07,.04h-.04s-.04,.04-.04,.08l-.04,.04s-.04,.04-.04,.08v.04s0,.04-.04,.08v14.12s-.04,.08-.07,.08h-1.17s-.07-.04-.07-.08v-14.12c0-.08-.04-.15-.07-.19l-.07-.08-.07-.08s-.04-.04-.07-.04c-1.21-.46-2.05-1.64-2.05-3.02v-6.2c0-.31-.26-.57-.55-.57s-.55,.27-.55,.57v6.2c0,1.68,.95,3.21,2.42,3.94v13.58c0,.69,.51,1.22,1.17,1.22h1.17c.66,0,1.17-.54,1.17-1.22v-13.58c1.47-.69,2.42-2.22,2.42-3.94v-6.2c-.07-.31-.33-.57-.62-.57h0Z"/></g></g></g></svg>