<?xml version="1.0" encoding="UTF-8"?><svg id="Calque_2" xmlns="http://www.w3.org/2000/svg" viewBox="0 0 74.16 74.16"><defs><style>.cls-1{fill:#fec10d;}.cls-2,.cls-3{fill:#34363a;}.cls-3{stroke:#34363a;stroke-miterlimit:10;stroke-width:.1px;}</style></defs><g id="Calque_1-2"><g><circle class="cls-1" cx="37.08" cy="37.08" r="37.08"/><g><g><path class="cls-2" d="M13.46,48.39c.11,.24,.16,.48,.14,.73-.02,.25-.1,.48-.24,.68-.14,.21-.33,.37-.57,.48s-.49,.16-.73,.14c-.25-.02-.47-.1-.67-.24-.21-.14-.37-.33-.48-.58-.12-.25-.17-.49-.15-.74,.02-.25,.09-.47,.23-.67,.14-.2,.33-.36,.58-.48,.25-.12,.5-.17,.75-.15,.25,.02,.47,.11,.67,.25,.2,.14,.36,.33,.47,.57Z"/><path class="cls-2" d="M12.46,40.33c.12,.87-.03,1.6-.45,2.18-.42,.58-1.1,.94-2.02,1.07l-1.69,.23c-.92,.13-1.67-.03-2.23-.48-.56-.45-.91-1.11-1.03-1.98-.12-.87,.03-1.58,.44-2.11s1.03-.86,1.86-.98h.06l.17,1.2h-.09c-.45,.07-.8,.25-1.06,.54-.26,.29-.35,.69-.28,1.21,.07,.5,.28,.88,.63,1.12,.35,.25,.79,.33,1.34,.26l1.73-.24c.54-.07,.94-.28,1.22-.61,.27-.33,.38-.75,.31-1.25-.07-.52-.27-.88-.59-1.09-.32-.21-.71-.28-1.16-.22l-.17,.02-.17-1.2,.14-.02c.83-.12,1.52,.03,2.06,.44,.54,.41,.87,1.05,.99,1.92Z"/><path class="cls-2" d="M7.87,36.51l-.66-.03v-.38c.03-.29-.11-.45-.41-.46h-.33v.15c-.02,.25-.1,.46-.27,.63-.16,.17-.36,.24-.6,.23-.25,0-.46-.1-.61-.28-.15-.18-.23-.39-.21-.65,.01-.26,.1-.47,.27-.63s.39-.23,.66-.22l1.13,.05c.73,.03,1.08,.41,1.05,1.13l-.02,.46Z"/><path class="cls-2" d="M12.75,32.08c-.1,.5-.29,.92-.58,1.25-.29,.34-.65,.57-1.08,.71s-.9,.15-1.42,.04l-.12-.02c-.52-.11-.96-.3-1.3-.59-.34-.29-.58-.64-.72-1.06-.14-.42-.15-.88-.05-1.37,.1-.48,.29-.89,.57-1.21,.29-.32,.64-.54,1.06-.67,.43-.12,.89-.13,1.41-.03l.41,.08-.76,3.75c.39,.07,.73,0,1.02-.22,.29-.21,.47-.51,.55-.9,.08-.38,.05-.67-.08-.89-.13-.21-.29-.39-.48-.53l.69-.86c.16,.13,.33,.31,.5,.53,.17,.22,.3,.49,.38,.82,.08,.33,.08,.71,0,1.16Zm-3.45,.7l.52-2.55c-.33-.04-.62,.03-.86,.22-.24,.19-.4,.46-.47,.81-.07,.37-.04,.69,.11,.95,.15,.26,.39,.45,.71,.57Z"/><path class="cls-2" d="M14.39,26.99c-.27,.6-.62,1.04-1.05,1.32-.43,.27-.93,.34-1.47,.2l.18-1.11c.26,.06,.48,.06,.67,.01,.19-.05,.35-.15,.48-.29s.24-.31,.32-.51c.13-.29,.17-.54,.13-.73-.04-.19-.15-.33-.31-.4-.17-.07-.33-.06-.47,.05-.14,.11-.31,.29-.49,.56l-.18,.27c-.2,.29-.42,.55-.64,.76-.23,.22-.47,.36-.73,.44-.26,.08-.54,.05-.84-.08-.45-.2-.73-.52-.83-.96-.1-.44-.03-.94,.21-1.49,.23-.52,.54-.9,.92-1.14,.38-.24,.79-.32,1.22-.25l-.14,1.13c-.29-.07-.52-.04-.71,.08-.19,.12-.33,.3-.44,.55-.11,.25-.15,.46-.12,.64,.03,.17,.12,.3,.29,.37,.16,.07,.32,.06,.46-.05,.14-.1,.28-.26,.42-.48l.18-.27c.21-.32,.43-.59,.66-.83,.22-.24,.46-.39,.73-.47s.55-.05,.87,.09c.48,.21,.78,.55,.89,1.01,.11,.46,.03,.99-.23,1.58Z"/><path class="cls-2" d="M16.61,22.77c-.19,.27-.41,.44-.69,.49-.27,.05-.55-.02-.82-.2l-2.5-1.69-.74,1.1-.81-.55,.74-1.1-1.36-.92,.66-.98,1.36,.92,.82-1.21,.81,.55-.82,1.21,2.34,1.58c.17,.12,.31,.09,.42-.07l.57-.84,.81,.55-.79,1.17Z"/><path class="cls-2" d="M21.25,17.86c-.31,.24-.63,.39-.98,.44-.35,.05-.68,0-1.01-.15-.33-.15-.62-.39-.89-.72l-1.89-2.39,.92-.73,1.83,2.32c.25,.32,.52,.5,.81,.53,.28,.03,.57-.07,.86-.3,.33-.26,.5-.57,.52-.94,.02-.37-.13-.75-.45-1.15l-1.6-2.02,.92-.73,3.16,3.99-.9,.72-.44-.56-.14,.11c.04,.2,.03,.44-.05,.72-.08,.28-.3,.57-.68,.86Z"/><path class="cls-2" d="M24.41,15.42l-2.13-4.62,1.06-.49,.3,.64,.16-.07c0-.21,.07-.45,.21-.7,.14-.25,.43-.48,.85-.68,.36-.16,.71-.23,1.06-.19,.35,.04,.67,.16,.95,.38,.28,.22,.52,.52,.7,.91l1.28,2.77-1.08,.5-1.24-2.68c-.17-.38-.39-.61-.66-.71-.27-.1-.57-.07-.91,.08-.38,.18-.62,.44-.72,.79-.1,.35-.04,.76,.17,1.23l1.08,2.34-1.08,.5Z"/><path class="cls-2" d="M32.15,12.33l-.27-5.08,1.16-.06,.03,.57h.18c.08-.19,.22-.35,.42-.49s.48-.23,.83-.25c.37-.02,.67,.04,.91,.18,.23,.14,.42,.32,.54,.55h.16c.11-.25,.26-.45,.47-.61,.21-.16,.52-.25,.92-.28,.32-.02,.61,.04,.87,.16,.26,.12,.48,.31,.65,.57,.17,.26,.26,.59,.28,.99l.18,3.36-1.18,.06-.17-3.28c-.02-.29-.11-.51-.27-.66s-.39-.21-.67-.2c-.31,.02-.55,.13-.72,.34s-.25,.51-.23,.88l.16,3.01-1.17,.06-.17-3.28c-.02-.3-.11-.52-.27-.66-.17-.15-.39-.21-.67-.2-.31,.02-.56,.13-.72,.34-.17,.21-.24,.51-.22,.88l.16,3.01-1.18,.06Z"/><path class="cls-2" d="M41.96,12.72c-.35-.08-.65-.21-.9-.4-.25-.19-.43-.42-.54-.69-.11-.27-.13-.58-.05-.92,.08-.33,.22-.6,.44-.79,.22-.19,.48-.31,.79-.36,.32-.05,.66-.04,1.03,.05l1.44,.33,.07-.3c.06-.26,.03-.49-.09-.69-.12-.2-.36-.34-.7-.42-.33-.08-.6-.05-.81,.06-.21,.12-.36,.3-.47,.53l-.98-.59c.14-.24,.32-.45,.55-.62s.5-.29,.83-.36c.32-.06,.7-.05,1.13,.05,.65,.15,1.12,.43,1.42,.84,.3,.41,.38,.92,.24,1.54l-.44,1.95c-.04,.2,.03,.32,.21,.37l.42,.1-.22,.96-.81-.19c-.24-.06-.42-.16-.55-.32-.13-.16-.17-.34-.12-.54v-.02l-.17-.04c-.06,.08-.16,.18-.29,.29-.13,.11-.31,.19-.54,.24s-.51,.04-.86-.04Zm.41-.9c.38,.09,.72,.05,1.01-.11,.29-.16,.48-.43,.56-.8l.02-.1-1.37-.31c-.25-.06-.46-.05-.64,.02-.18,.07-.29,.21-.34,.42-.04,.2,0,.38,.13,.54,.13,.16,.34,.27,.62,.34Z"/><path class="cls-2" d="M47.32,14.3c-.3-.13-.5-.33-.61-.58-.1-.26-.08-.54,.05-.85l1.2-2.77-1.22-.53,.39-.9,1.22,.53,.65-1.5,1.09,.47-.65,1.5,1.34,.58-.39,.9-1.34-.58-1.13,2.59c-.08,.19-.03,.32,.14,.4l.93,.41-.39,.9-1.29-.56Z"/><path class="cls-2" d="M51.24,16.68c-.41-.28-.72-.62-.93-1.01-.21-.4-.3-.82-.27-1.27,.03-.45,.2-.91,.52-1.36l.08-.12c.31-.45,.67-.78,1.08-.97,.41-.19,.84-.26,1.28-.21,.45,.05,.87,.22,1.28,.5,.4,.28,.7,.58,.88,.92,.19,.34,.29,.69,.29,1.06,0,.37-.07,.72-.23,1.06l-1.08-.45c.1-.19,.15-.39,.17-.59,.01-.2-.03-.4-.12-.59-.1-.19-.26-.37-.49-.52-.23-.16-.47-.25-.73-.28-.25-.03-.5,.02-.74,.15-.24,.13-.46,.33-.65,.61l-.06,.09c-.19,.28-.3,.55-.33,.82-.03,.27,.01,.51,.13,.74,.12,.23,.29,.42,.52,.58,.34,.24,.67,.33,.97,.27,.3-.06,.57-.21,.81-.46l.79,.87c-.27,.25-.58,.43-.92,.56-.34,.12-.71,.16-1.09,.11-.38-.05-.78-.22-1.18-.49Z"/><path class="cls-2" d="M53.97,18.52l5.34-4.84,.79,.88-2.07,1.87,.12,.13c.12-.04,.27-.05,.44-.04,.17,.01,.35,.07,.54,.17,.19,.1,.39,.26,.6,.49,.26,.29,.43,.61,.5,.95,.07,.34,.05,.68-.07,1.02-.12,.34-.34,.65-.66,.94l-2.26,2.05-.79-.88,2.19-1.98c.3-.28,.46-.56,.48-.84,.01-.29-.1-.57-.35-.84-.28-.31-.61-.46-.97-.45-.37,0-.74,.19-1.12,.53l-1.91,1.73-.79-.88Z"/><path class="cls-2" d="M60.89,26.17c-.11-.24-.15-.48-.13-.73,.02-.25,.1-.47,.25-.68,.15-.21,.34-.37,.58-.48,.24-.11,.49-.16,.73-.13s.47,.11,.67,.25c.2,.14,.36,.34,.47,.58,.11,.25,.16,.5,.14,.74-.02,.24-.1,.47-.24,.67-.14,.2-.34,.36-.59,.47-.26,.12-.51,.16-.75,.13-.25-.03-.47-.11-.67-.26-.2-.15-.35-.34-.46-.58Z"/><path class="cls-2" d="M61.68,33.72c-.12-.87,.02-1.6,.44-2.19s1.09-.95,2.02-1.08l1.69-.24c.92-.13,1.67,.03,2.24,.47,.57,.45,.91,1.11,1.04,1.98,.12,.87-.02,1.58-.43,2.12-.41,.54-1.03,.87-1.86,.99h-.06l-.17-1.19h.09c.45-.08,.8-.25,1.05-.54,.25-.29,.34-.69,.27-1.21-.07-.5-.28-.88-.63-1.12-.35-.25-.8-.33-1.34-.25l-1.73,.25c-.54,.08-.94,.28-1.21,.61-.27,.33-.37,.75-.3,1.25,.07,.52,.27,.88,.6,1.09,.32,.21,.71,.28,1.16,.21l.17-.03,.17,1.2-.14,.02c-.83,.12-1.52-.03-2.06-.43-.54-.41-.88-1.04-1-1.91Z"/><path class="cls-2" d="M66.29,37.51l.66,.02v.38c-.02,.3,.12,.45,.41,.46h.33v-.15c.02-.25,.1-.46,.26-.63,.16-.17,.36-.24,.6-.24,.25,0,.46,.1,.61,.28,.15,.18,.23,.39,.22,.65-.01,.26-.1,.47-.27,.63-.17,.16-.39,.23-.66,.22l-1.13-.04c-.73-.03-1.08-.4-1.05-1.12l.02-.46Z"/><path class="cls-2" d="M61.43,41.96c.1-.5,.29-.92,.58-1.26,.29-.34,.65-.58,1.08-.71,.43-.14,.9-.15,1.42-.05l.12,.02c.53,.1,.96,.3,1.3,.58,.34,.29,.58,.64,.72,1.06,.14,.42,.16,.87,.06,1.37-.09,.49-.28,.89-.57,1.21s-.64,.55-1.06,.67c-.42,.13-.89,.14-1.4,.04l-.42-.08,.74-3.75c-.39-.06-.73,.01-1.02,.23-.29,.22-.47,.52-.54,.9-.07,.38-.05,.67,.08,.89,.13,.21,.29,.39,.48,.53l-.68,.86c-.16-.13-.33-.3-.5-.52-.17-.22-.3-.49-.39-.82-.09-.33-.08-.71,0-1.16Zm3.45-.72l-.5,2.56c.34,.04,.62-.04,.86-.22,.24-.19,.39-.46,.46-.82,.07-.37,.03-.69-.12-.95-.15-.26-.39-.45-.71-.57Z"/><path class="cls-2" d="M59.82,47.04c.26-.61,.61-1.05,1.04-1.32,.43-.28,.92-.34,1.47-.21l-.18,1.11c-.26-.06-.48-.06-.67,0-.19,.05-.35,.15-.47,.29-.13,.14-.24,.31-.32,.51-.13,.3-.17,.54-.13,.74,.04,.19,.15,.33,.31,.4,.17,.07,.33,.06,.47-.05,.14-.11,.31-.29,.49-.56l.17-.27c.2-.29,.42-.55,.64-.77s.47-.36,.73-.44c.26-.08,.54-.05,.84,.08,.46,.2,.73,.52,.83,.96,.1,.44,.03,.94-.21,1.49-.23,.52-.53,.9-.91,1.14-.38,.24-.79,.32-1.22,.26l.13-1.13c.29,.06,.52,.03,.71-.09,.18-.12,.33-.31,.44-.55,.11-.25,.15-.47,.12-.64-.03-.17-.13-.3-.29-.37-.17-.07-.32-.05-.46,.05s-.28,.26-.42,.48l-.18,.27c-.21,.32-.43,.6-.65,.83-.22,.24-.46,.4-.72,.48-.26,.08-.55,.05-.87-.08-.49-.21-.78-.55-.89-1.01s-.04-.99,.22-1.58Z"/><path class="cls-2" d="M57.62,51.29c.18-.27,.41-.44,.68-.49,.27-.05,.55,.01,.83,.2l2.5,1.68,.74-1.1,.81,.54-.74,1.1,1.36,.91-.66,.98-1.36-.91-.81,1.21-.81-.54,.81-1.21-2.34-1.57c-.17-.11-.31-.09-.42,.07l-.57,.85-.81-.54,.79-1.17Z"/><path class="cls-2" d="M53,56.23c.31-.24,.63-.39,.98-.44s.68,0,1.01,.14,.62,.39,.89,.72l1.9,2.38-.92,.73-1.85-2.31c-.26-.32-.53-.5-.81-.53-.28-.03-.57,.07-.86,.3-.33,.26-.5,.58-.52,.94-.02,.37,.13,.75,.45,1.15l1.61,2.01-.92,.73-3.18-3.97,.9-.72,.44,.56,.14-.11c-.04-.2-.03-.44,.05-.72,.08-.28,.3-.57,.67-.87Z"/><path class="cls-2" d="M49.85,58.68l2.15,4.61-1.05,.49-.3-.64-.16,.07c0,.21-.07,.45-.21,.7-.14,.25-.42,.48-.85,.68-.35,.17-.71,.23-1.06,.2-.35-.03-.67-.16-.95-.37-.29-.22-.52-.52-.7-.91l-1.29-2.76,1.07-.5,1.25,2.68c.17,.37,.4,.61,.67,.71,.27,.1,.57,.07,.91-.09,.38-.18,.62-.44,.72-.8,.1-.35,.04-.76-.18-1.23l-1.09-2.33,1.07-.5Z"/><path class="cls-2" d="M42.16,61.8l.3,5.08-1.16,.07-.03-.57h-.17c-.08,.19-.22,.35-.42,.5-.2,.14-.48,.23-.83,.25-.37,.02-.67-.04-.91-.17s-.42-.32-.55-.55h-.17c-.1,.25-.26,.45-.47,.62-.21,.16-.52,.26-.92,.28-.32,.02-.61-.03-.87-.16-.27-.12-.48-.31-.65-.57-.17-.26-.27-.59-.29-.98l-.2-3.36,1.18-.07,.19,3.28c.02,.29,.11,.52,.28,.66,.17,.15,.39,.21,.67,.19,.31-.02,.55-.13,.72-.35s.24-.51,.22-.88l-.18-3.01,1.17-.07,.19,3.28c.02,.29,.11,.51,.28,.66,.17,.14,.39,.21,.67,.19,.32-.02,.56-.13,.72-.35s.24-.51,.22-.88l-.18-3.01,1.18-.07Z"/><path class="cls-2" d="M32.33,61.46c.35,.08,.65,.21,.91,.4,.25,.19,.44,.41,.55,.69s.13,.58,.05,.92c-.07,.33-.22,.6-.43,.79-.21,.19-.48,.31-.79,.37-.31,.05-.66,.04-1.02-.04l-1.44-.32-.07,.3c-.06,.26-.03,.49,.1,.69,.12,.2,.36,.34,.7,.41,.34,.07,.61,.05,.81-.07,.21-.12,.36-.3,.47-.53l.99,.59c-.14,.24-.32,.45-.55,.63-.23,.17-.5,.3-.82,.36-.33,.07-.7,.05-1.13-.04-.65-.14-1.13-.42-1.42-.83-.3-.41-.38-.92-.25-1.54l.43-1.95c.05-.2-.03-.32-.21-.36l-.42-.09,.21-.96,.81,.18c.24,.05,.43,.16,.55,.31,.13,.16,.17,.34,.12,.54v.02l.17,.04c.06-.08,.16-.18,.29-.29,.13-.11,.31-.19,.53-.25,.23-.05,.51-.04,.86,.04Zm-.4,.9c-.38-.08-.72-.04-1.01,.12-.29,.16-.48,.43-.56,.8l-.02,.1,1.37,.3c.25,.06,.46,.05,.64-.03,.18-.07,.29-.21,.34-.42,.04-.2,0-.38-.13-.54-.13-.16-.34-.27-.62-.33Z"/><path class="cls-2" d="M26.96,59.91c.3,.13,.51,.32,.61,.58,.1,.26,.09,.54-.04,.85l-1.19,2.77,1.22,.52-.39,.9-1.22-.52-.65,1.51-1.09-.47,.65-1.51-1.34-.58,.38-.9,1.34,.58,1.11-2.59c.08-.19,.03-.32-.14-.4l-.94-.4,.39-.9,1.3,.56Z"/><path class="cls-2" d="M23.02,57.54c.41,.28,.72,.61,.93,1.01,.21,.39,.31,.82,.27,1.27-.03,.45-.2,.91-.51,1.36l-.08,.12c-.31,.45-.67,.78-1.08,.97-.41,.19-.84,.26-1.28,.21-.44-.05-.87-.22-1.28-.5-.4-.27-.7-.58-.89-.92s-.29-.69-.3-1.06,.07-.72,.22-1.06l1.08,.45c-.1,.19-.15,.39-.17,.59-.01,.2,.03,.4,.13,.59,.1,.19,.26,.36,.49,.52,.23,.16,.48,.25,.73,.28,.25,.03,.5-.03,.74-.15,.24-.13,.45-.33,.64-.61l.06-.08c.19-.28,.3-.55,.33-.82s-.02-.52-.13-.74c-.11-.23-.29-.42-.52-.58-.35-.24-.67-.32-.97-.27-.3,.06-.57,.21-.81,.47l-.79-.86c.27-.25,.57-.44,.92-.56,.34-.12,.71-.16,1.09-.11,.39,.05,.78,.21,1.18,.49Z"/><path class="cls-2" d="M20.29,55.73l-5.32,4.87-.8-.87,2.06-1.88-.12-.13c-.12,.04-.27,.05-.44,.04-.17-.01-.35-.07-.54-.17-.19-.1-.39-.26-.6-.49-.26-.29-.43-.6-.51-.94-.08-.34-.05-.68,.07-1.02,.12-.34,.34-.65,.66-.94l2.25-2.06,.8,.87-2.18,2c-.3,.28-.46,.56-.47,.85-.01,.29,.11,.57,.36,.84,.28,.31,.61,.46,.97,.45s.74-.19,1.12-.54l1.9-1.74,.8,.87Z"/></g><g><path class="cls-2" d="M42.04,35.2h-2.36v-3.62c1.06-.53,1.79-1.62,1.79-2.88,0-1.78-1.44-3.22-3.22-3.22-.58,0-1.14,.16-1.64,.45-.8-.91-1.95-1.45-3.18-1.45-.84,0-1.65,.25-2.35,.72-.95-.99-2.24-1.55-3.63-1.55-2.78,0-5.05,2.26-5.05,5.05,0,1.46,.62,2.77,1.61,3.69v13.25c0,2.68,2.18,4.87,4.87,4.87h5.92c2.68,0,4.87-2.18,4.87-4.87v-2.66h2.36c1.41,0,2.56-1.15,2.56-2.56v-2.66c0-1.41-1.15-2.56-2.56-2.56h0Zm-18.5-6.5c0-2.16,1.76-3.92,3.92-3.92,1.22,0,2.35,.56,3.1,1.53l.37,.48,.45-.4c.57-.51,1.3-.78,2.05-.78,1.05,0,2.01,.53,2.59,1.4l.36,.55,.49-.43c.38-.34,.87-.52,1.38-.52,1.15,0,2.09,.94,2.09,2.09s-.94,2.09-2.09,2.09c-.51,0-1-.19-1.38-.52l-.49-.43-.36,.55c-.57,.88-1.54,1.41-2.59,1.41-.75,0-1.48-.28-2.05-.78l-.45-.4-.37,.48c-.75,.98-1.88,1.54-3.1,1.54-2.16,0-3.92-1.76-3.92-3.92h0Zm11.27,20.68h-5.91c-2.06,0-3.74-1.68-3.74-3.74v-12.45c.69,.36,1.47,.56,2.3,.56,1.39,0,2.68-.56,3.63-1.55,.69,.47,1.51,.72,2.35,.72,1.23,0,2.38-.53,3.18-1.45,.49,.29,1.06,.45,1.64,.45,.1,0,.2,0,.3-.01v13.73c0,2.06-1.68,3.74-3.74,3.74h0Zm8.66-8.96c0,.79-.64,1.43-1.43,1.43h-2.36v-5.52h2.36c.79,0,1.43,.64,1.43,1.43v2.66Z"/><path class="cls-2" d="M27.3,36.41h1.13v8.07h-1.13v-8.07Z"/><path class="cls-2" d="M31.41,36.41h1.13v8.07h-1.13v-8.07Z"/><path class="cls-2" d="M35.53,36.41h1.13v8.07h-1.13v-8.07Z"/><path class="cls-2" d="M26.13,30.03c.31,0,.56-.25,.56-.56,0-1,.81-1.81,1.81-1.81,.31,0,.56-.25,.56-.56s-.25-.56-.56-.56c-1.62,0-2.94,1.32-2.94,2.94,0,.31,.25,.56,.56,.56h0Z"/></g><path class="cls-3" d="M45.29,31.78c0,.89,.79,1.62,1.74,1.62v15.81c0,.69,.57,1.22,1.31,1.22s1.31-.53,1.31-1.22v-15.81c.96,0,1.74-.73,1.74-1.62v-6.89c0-.24-.17-.41-.44-.41s-.44,.16-.44,.41v4.05c0,.24-.22,.41-.44,.41s-.44-.16-.44-.41v-4.05c0-.24-.17-.41-.44-.41s-.44,.16-.44,.41v4.05c0,.24-.17,.41-.44,.41-.22,0-.44-.16-.44-.41v-4.05c0-.24-.17-.41-.44-.41s-.44,.16-.44,.41v4.05c0,.24-.17,.41-.44,.41s-.44-.16-.44-.41v-4.05c0-.24-.17-.41-.44-.41s-.44,.16-.44,.41v6.89Zm5.24,0c0,.45-.39,.81-.87,.81-.52,0-.87,.32-.87,.81v15.81c0,.24-.17,.41-.44,.41s-.44-.16-.44-.41v-15.81c0-.49-.35-.81-.87-.81-.48,0-.87-.36-.87-.81v-1.66c.13,.04,.26,.04,.44,.04,.31,0,.65-.08,.87-.28,.22,.2,.52,.28,.87,.28,.31,0,.65-.08,.87-.28,.22,.2,.52,.28,.87,.28,.13,0,.31,0,.44-.04v1.66Z"/></g></g></g></svg>